<?xml version="1.0" encoding="utf-8"?>
<!-- Generator: Adobe Illustrator 23.0.4, SVG Export Plug-In . SVG Version: 6.00 Build 0)  -->
<svg version="1.1" id="Laag_1" xmlns="http://www.w3.org/2000/svg" xmlns:xlink="http://www.w3.org/1999/xlink" x="0px" y="0px"
	 viewBox="0 0 62 44" style="enable-background:new 0 0 62 44;" xml:space="preserve">
<style type="text/css">
	.st0{fill:#FFFFFF;}
</style>
<g>
	<path class="st0" d="M19.2,22.3c0-0.1-0.1-0.2-0.1-0.3c-1.1-2.7-2.1-5.4-3.2-8c-0.3-0.9-0.2-1.7,0.4-2.3c1-0.9,2.5-0.5,3,0.8
		c0.5,1.2,1,2.4,1.4,3.6c0.2,0.6,0.4,1.1,0.7,1.7c0.4-0.5,0.9-0.8,1.5-0.8c0.6,0,1.1,0.3,1.5,0.8c0.8-1.2,2.4-1.2,3.3,0.1
		c0,0,0,0,0.1,0c1-1.2,2.7-1,3.3,0.5c0.3,0.7,0.5,1.3,0.8,2c0.5,1.3,1.1,2.6,1.5,4c0.6,1.9,0.4,3.7-0.8,5.3
		c-0.6,0.8-1.3,1.4-2.2,1.8c-1.2,0.6-2.5,1.1-3.9,1.4c-1.8,0.3-3.4,0.1-4.9-1.1c-0.7-0.5-1.2-1.2-1.7-1.9c-0.4-0.7-0.8-1.4-1.2-2.1
		c-0.8-1.4-1.9-2.3-3.3-3c-0.5-0.2-0.8-0.8-0.9-1.3c-0.2-1.4,1.2-2.6,2.5-2.1c0.5,0.2,1,0.5,1.5,0.8C19,22.1,19.1,22.2,19.2,22.3z
		 M25.9,32c1.7-0.2,3.4-0.8,5-1.8c1-0.7,1.7-1.6,2-2.8c0.3-1.2,0.1-2.3-0.3-3.4c-0.7-1.8-1.4-3.6-2.1-5.4c-0.1-0.2-0.2-0.4-0.4-0.5
		c-0.3-0.3-0.7-0.4-1.1-0.2c-0.4,0.2-0.7,0.5-0.7,0.9c0,0.2,0,0.4,0.1,0.6c0.2,0.4,0.3,0.9,0.5,1.3c0.1,0.2,0,0.5-0.2,0.6
		c-0.2,0.1-0.4,0-0.5-0.2c0-0.1-0.1-0.1-0.1-0.2c-0.3-0.8-0.6-1.6-0.9-2.3c-0.2-0.6-0.8-0.9-1.3-0.7c-0.6,0.2-0.9,0.8-0.7,1.4
		c0.2,0.5,0.4,0.9,0.5,1.4c0.1,0.3,0.3,0.7,0.4,1c0.1,0.2,0,0.5-0.2,0.5c-0.2,0.1-0.4,0-0.5-0.2c0,0,0-0.1-0.1-0.1
		c-0.4-1-0.8-2-1.2-3c-0.1-0.1-0.1-0.3-0.2-0.4c-0.3-0.4-0.8-0.6-1.3-0.4c-0.5,0.2-0.7,0.7-0.6,1.2c0.1,0.2,0.1,0.4,0.2,0.6
		c0.4,1,0.8,1.9,1.1,2.9c0.1,0.2,0,0.5-0.2,0.6c-0.2,0.1-0.4,0-0.5-0.2c0,0,0-0.1-0.1-0.1c-1.3-3.3-2.6-6.5-3.9-9.8
		c-0.1-0.2-0.1-0.3-0.2-0.4c-0.3-0.4-0.8-0.6-1.2-0.4c-0.4,0.2-0.7,0.6-0.7,1.1c0,0.2,0.1,0.3,0.1,0.5c1.2,3.1,2.4,6.1,3.6,9.2
		c0.2,0.6,0.5,1.2,0.7,1.7c0.1,0.2,0,0.5-0.2,0.6c-0.2,0.1-0.4,0-0.5-0.2c-0.1-0.1-0.1-0.3-0.2-0.4c-0.1-0.3-0.3-0.6-0.5-0.8
		c-0.7-0.6-1.4-1.1-2.2-1.5C17.2,22.1,17.1,22,17,22c-0.7-0.2-1.4,0.4-1.3,1.1c0,0.4,0.2,0.7,0.5,0.9c1.5,0.7,2.7,1.8,3.6,3.2
		c0.3,0.5,0.6,1.1,0.9,1.6c0.4,0.6,0.8,1.2,1.3,1.8C22.9,31.6,24.2,32.1,25.9,32z"/>
	<path class="st0" d="M21.1,10.1c0.1,0.1,0.3,0.2,0.4,0.3c0.2,0.2,0.3,0.4,0.1,0.6c-0.1,0.2-0.4,0.2-0.6,0.1
		c-0.4-0.3-0.8-0.6-1.2-0.8c-0.3-0.2-0.3-0.4-0.1-0.7c0.3-0.4,0.5-0.8,0.8-1.2c0.2-0.2,0.4-0.3,0.6-0.2c0.2,0.1,0.3,0.4,0.1,0.6
		C21.1,8.9,21,9.1,21,9.2c0.8,0,1.7-0.1,2.5-0.1c2.7,0.1,5,1.1,6.8,3c0.1,0.1,0.1,0.1,0.2,0.2c0.2,0.2,0.1,0.4-0.1,0.6
		c-0.2,0.1-0.4,0.1-0.6-0.1c-0.5-0.6-1-1-1.6-1.4c-1.8-1.2-3.8-1.6-5.9-1.5C21.9,9.9,21.5,10,21.1,10.1
		C21.1,10.1,21.1,10.1,21.1,10.1z"/>
</g>
</svg>
